# xmcd
# Copyright (C) 1995-1998 Ti Kan
#
# Track frame offsets:
#       150
#       14025
#       35270
#       57170
#       77563
#       101080
#       118230
#       138206
#       158754
#       183220
#       201220
#
# Disc length: 2910 seconds
#
# Revision: 0
# Processed by: cddbd v1.4PL0 Copyright (c) Steve Scherf et al.
# Submitted via: CD-Transfer v1.0
#
DISCID=8d0b5c0b
DTITLE=Arthur Müller - Sugartown
DYEAR=1999
DGENRE=
TTITLE0=Alone
TTITLE1=Sugartown
TTITLE2=Memphis
TTITLE3=Louisiana Ground
TTITLE4=More Than I
TTITLE5=No More Horses
TTITLE6=Chet's Last Tune
TTITLE7=Sweat And Rain
TTITLE8=Jo-Anna
TTITLE9=Tightrope
TTITLE10=On Va Danser
EXTD=
EXTT0=
EXTT1=
EXTT2=
EXTT3=
EXTT4=
EXTT5=
EXTT6=
EXTT7=
EXTT8=
EXTT9=
EXTT10=
PLAYORDER=
